<?xml version="1.0" encoding="UTF-8" standalone="no"?>
<!-- Created with Inkscape (http://www.inkscape.org/) -->

<svg
   xmlns:dc="http://purl.org/dc/elements/1.1/"
   xmlns:cc="http://creativecommons.org/ns#"
   xmlns:rdf="http://www.w3.org/1999/02/22-rdf-syntax-ns#"
   xmlns:svg="http://www.w3.org/2000/svg"
   xmlns="http://www.w3.org/2000/svg"
   xmlns:sodipodi="http://sodipodi.sourceforge.net/DTD/sodipodi-0.dtd"
   xmlns:inkscape="http://www.inkscape.org/namespaces/inkscape"
   width="64"
   height="64"
   id="svg2"
   version="1.1"
   inkscape:version="0.48.4 r9939"
   inkscape:export-filename="D:\work\projects\android\art\ic_scan_32.png"
   inkscape:export-xdpi="45"
   inkscape:export-ydpi="45"
   sodipodi:docname="Новый документ 1">
  <defs
     id="defs4" />
  <sodipodi:namedview
     id="base"
     pagecolor="#ffffff"
     bordercolor="#666666"
     borderopacity="1.0"
     inkscape:pageopacity="0.0"
     inkscape:pageshadow="2"
     inkscape:zoom="5.0859375"
     inkscape:cx="43.558579"
     inkscape:cy="27.686736"
     inkscape:document-units="px"
     inkscape:current-layer="layer2"
     showgrid="false"
     showguides="true"
     inkscape:guide-bbox="true"
     inkscape:window-width="1600"
     inkscape:window-height="838"
     inkscape:window-x="-8"
     inkscape:window-y="-8"
     inkscape:window-maximized="1">
    <sodipodi:guide
       orientation="1,0"
       position="5.0138249,34.998464"
       id="guide2985" />
    <sodipodi:guide
       orientation="0,1"
       position="5.0138249,5.0138249"
       id="guide2987" />
    <sodipodi:guide
       orientation="1,0"
       position="58.986175,25.167435"
       id="guide2989" />
    <sodipodi:guide
       orientation="0,1"
       position="28.018433,58.986175"
       id="guide2991" />
  </sodipodi:namedview>
  <metadata
     id="metadata7">
    <rdf:RDF>
      <cc:Work
         rdf:about="">
        <dc:format>image/svg+xml</dc:format>
        <dc:type
           rdf:resource="http://purl.org/dc/dcmitype/StillImage" />
        <dc:title></dc:title>
      </cc:Work>
    </rdf:RDF>
  </metadata>
  <g
     inkscape:label="Layer 1"
     inkscape:groupmode="layer"
     id="layer1"
     transform="translate(0,-988.36218)"
     style="display:none"
     sodipodi:insensitive="true" />
  <g
     inkscape:groupmode="layer"
     id="layer2"
     inkscape:label="scanex"
     sodipodi:insensitive="true"
     style="display:inline">
    <path
       style="fill:#ffffff;stroke:#ffffff;stroke-width:1px;stroke-linecap:butt;stroke-linejoin:miter;stroke-opacity:1"
       d="m 4.991127,59.008873 53.97235,0 0,-53.9723499 c 0,0 -4.846445,26.1954589 -17.554714,38.2704449 C 29.669639,54.461102 4.991127,59.008873 4.991127,59.008873 z"
       id="path3004-1"
       inkscape:connector-curvature="0"
       sodipodi:nodetypes="cccsc" />
    <path
       style="fill:#ffffff;stroke:#ffffff;stroke-width:1px;stroke-linecap:butt;stroke-linejoin:miter;stroke-opacity:1"
       d="m 30.147191,45.11438 c 0,0 -1.112254,-12.651889 2.085477,-21.827984 3.19773,-9.176096 15.050186,-17.3461669 15.050186,-17.3461669 0,0 -18.665012,1.774611 -27.28498,9.6994209 -8.619969,7.924809 -9.454159,21.967016 -9.454159,21.967016 z"
       id="path3006-7"
       inkscape:connector-curvature="0"
       sodipodi:nodetypes="cscscc" />
  </g>
  <g
     inkscape:groupmode="layer"
     id="layer3"
     inkscape:label="nasa"
     style="display:none">
    <text
       xml:space="preserve"
       style="font-size:11.06377411px;font-style:normal;font-variant:normal;font-weight:bold;font-stretch:normal;line-height:125%;letter-spacing:0px;word-spacing:0px;fill:#ffffff;fill-opacity:1;stroke:none;display:inline;font-family:Verdana;-inkscape-font-specification:Verdana Bold"
       x="14.187793"
       y="58.986176"
       id="text3826"
       sodipodi:linespacing="125%"><tspan
         sodipodi:role="line"
         id="tspan3828"
         x="14.187793"
         y="58.986176"
         style="font-style:normal;font-variant:normal;font-weight:bold;font-stretch:normal;fill:#ffffff;font-family:Verdana;-inkscape-font-specification:Verdana Bold">NASA</tspan></text>
    <path
       style="fill:#ffffff;fill-opacity:1;stroke:none;display:inline"
       d="m 31.671539,4.9999627 c -4.66723,0 -9.38943,1.827006 -12.97609,4.257337 3.54627,-0.926683 7.92697,-0.498129 11.06984,1.3051633 2.36745,1.47512 4.36847,3.4732 6.15625,5.625 0.79017,0.9438 2.21548,2.61665 3.59375,4.28125 1.85221,-1.0526 3.43102,-2.0023 5.21875,-3.3125 l 4.1875,-4.03125 0,-0.03125 c -4.1057,-4.9373623 -10.30481,-8.0937503 -17.25,-8.0937503 z m -12.33463,4.679051 c -0.62686,7.4449083 1.82123,12.8178343 4.37078,17.4547343 1.81827,-0.5843 3.47559,-1.076885 5.27635,-1.758785 3.98265,-1.5083 6.318,-2.684579 9.53759,-4.365879 -0.79039,-1.334732 -2.3305,-2.910856 -3.35499,-4.196285 0,0 -3.60621,-4.09909 -5.95084,-5.53125 -3.2951,-1.9375533 -6.21888,-1.9554463 -9.87889,-1.6025353 z m -0.6271,-0.453285 C 13.036829,13.264445 9.2652894,19.81315 9.2652894,27.281213 c 0,1.734307 0.21654,3.411014 0.59375,5.03125 3.5306896,-1.379253 7.8904396,-3.076112 11.0624996,-4.25 0.42248,-0.1563 1.22955,-0.38425 1.875,-0.59375 -2.50511,-4.927818 -5.50876,-12.311868 -4.08673,-18.2429843 z m 30.68048,4.4929843 c -0.62637,1.018561 -1.32526,2.134041 -1.90625,2.90625 -1.5904,2.1138 -3.81806,4.5419 -5.84375,6.5 0.65824,0.8725 1.2335,1.7058 1.5625,2.3125 1.78839,3.298 2.96145,5.38385 3.78125,8.71875 0.846,3.6563 0.6655,8.20095 -0.4375,9.34375 -2.00594,1.8431 -6.53644,1.4169 -9.46875,-0.25 l 0.4891,-1.002784 c 3.68735,1.882 6.82673,1.790643 8.14891,0.609543 1.02156,-0.9511 1.25681,-5.979749 0.3929,-8.508449 -1.02257,-2.9469 -1.21185,-4.079667 -3.71875,-8.488767 -0.21365,-0.3758 -0.77358,-1.080262 -1.50667,-2.033362 -1.49803,1.3981 -2.75262,2.015419 -6.86799,4.923819 -2.06085,1.4564 -4.2864,2.941152 -6.3234,4.310052 l 2.38624,2.993327 c 0,0 0.93842,0.3436 1.34375,0.625 0.62728,0.4354 1.29681,0.9332 1.625,1.625 0.18472,0.3894 -0.0783,1.361656 -0.0783,1.361656 0,0 -1.11014,0.175415 -1.54705,-0.0088 -0.67621,-0.2849 -1.25773,-0.8401 -1.6875,-1.4375 -0.21266,-0.295585 -0.40625,-1.406235 -0.40625,-1.406235 -0.78478,-1.0878 -1.6006,-2.143 -2.40625,-3.1875 -1.45999,0.9781 -2.875,1.875 -2.875,1.875 l -6.25456,4.638681 -2.62044,2.173819 c 4.09226,4.442664 9.96461,7.21875 16.5,7.21875 12.3624,0 22.375,-9.954243 22.375,-22.25 0,-5.112356 -1.74335,-9.804197 -4.65625,-13.5625 z m -8.28125,8.3125 c 0,0 -0.16043,0.088 -0.21875,0.125 0.0137,0.017 0.0176,0.0445 0.0312,0.0625 z m -2.47043,1.34687 c 0,0 -1.67762,0.97123 -4.81082,2.09063 -5.12,1.8292 -5.81137,1.9159 -7.96875,2.5 -0.74784,0.2025 -0.83227,0.209757 -1.50178,0.390457 0.87685,1.470236 1.6414,2.439524 2.70051,3.818836 2.98123,-2.05945 5.61464,-3.706641 8.59342,-5.769681 l 3.39746,-2.62956 z m -15.21707,5.27813 c -2.60445,0.7019 -4.8922,1.30395 -7.5,1.96875 -1.57411,0.401193 -3.92487,1.162452 -6.0312496,1.875 0.8450196,3.495035 2.5280496,6.676757 4.8124996,9.3125 2.08713,-1.952927 4.32875,-4.015596 5.9484,-5.109543 l 5.61832,-4.009121 c -1.1787,-1.56826 -1.96153,-2.514168 -2.84797,-4.037586 z"
       id="path3830"
       inkscape:connector-curvature="0"
       sodipodi:nodetypes="scccccccsccccccccscccccscsccccccccscccsccscccccssccccccsccccccccccccc" />
  </g>
  <g
     inkscape:groupmode="layer"
     id="layer4"
     inkscape:label="eye"
     sodipodi:insensitive="true"
     style="display:none">
    <path
       sodipodi:type="arc"
       style="fill:#ffffff;stroke:#ffffff;stroke-width:2;stroke-miterlimit:4;stroke-opacity:1;stroke-dasharray:none;stroke-dashoffset:0"
       id="path3043"
       sodipodi:cx="29.266184"
       sodipodi:cy="31.258024"
       sodipodi:rx="10.357865"
       sodipodi:ry="10.357865"
       d="m 39.624049,31.258024 a 10.357865,10.357865 0 1 1 -20.71573,0 10.357865,10.357865 0 1 1 20.71573,0 z"
       transform="translate(1.668381,1.3903175)" />
    <path
       style="fill:none;stroke:#ffffff;stroke-width:2;stroke-linecap:butt;stroke-linejoin:miter;stroke-miterlimit:4;stroke-opacity:1;stroke-dasharray:none"
       d="M 7.078341,33.134952 C 11.502304,25.049213 20.29861,20.870985 30.922637,20.998468 41.68567,21.127619 47.42151,22.779556 56.725038,31.900534 47.542892,44.092588 33.78071,44.387592 31.821403,44.365683 22.58864,44.176529 13.075269,41.908863 7.078341,33.134952 z"
       id="path3045"
       inkscape:connector-curvature="0"
       sodipodi:nodetypes="csccc" />
  </g>
</svg>
